<?xml version="1.0" encoding="utf-8"?>
<!-- Generator: Adobe Illustrator 24.0.0, SVG Export Plug-In . SVG Version: 6.00 Build 0)  -->
<svg version="1.1" xmlns="http://www.w3.org/2000/svg" xmlns:xlink="http://www.w3.org/1999/xlink" x="0px" y="0px"
	 viewBox="0 0 362.8 411.4" style="enable-background:new 0 0 362.8 411.4;" xml:space="preserve">
<style type="text/css">
	.st0{display:none;}
	.st1{display:inline;fill:#E44D26;}
	.st2{display:inline;fill:#F16529;}
	.st3{display:inline;fill:#EBEBEB;}
	.st4{display:inline;fill:#FFFFFF;}
	.st5{display:inline;fill:#E6A329;}
	.st6{display:inline;fill:#F1BF22;}
	.st7{fill:#61DAFB;}
</style>
<g id="Calque_1" class="st0">
	<title>HTML5 Logo</title>
	<path class="st1" d="M33,370.4L0,0h362.8l-33,370.2l-148.7,41.2"/>
	<path class="st2" d="M181.4,379.9V30.4h148.3l-28.3,316"/>
	<path class="st3" d="M67.4,75.7h114v45.4h-64.2l4.2,46.5h60v45.3H79.8 M81.8,235.7h45.6l3.2,36.3l50.8,13.6V333l-93.2-26"/>
	<path class="st4" d="M295,75.7H181.2v45.4h109.6 M286.7,167.6H181.2V213h56l-5.3,59l-50.7,13.6v47.2l93-25.8"/>
</g>
<g id="Calque_2" class="st0">
	<path class="st5" d="M362.8,0H0l34,368.8l147.4,41.8l147.4-41.8L362.8,0z"/>
	<path class="st6" d="M181.4,30v349.3l119.4-33.8l29-315.5L181.4,30z"/>
	<path class="st4" d="M276.4,75.3H92.8L80,213.4l0.3-0.9h156l-5.1,58.4l-49.8,14.3l-50.5-14.5l-3-35.4H82l6.5,70.7l92.8,26.4
		l92.9-26.4L287,167.3H121.5l2.1-46.2h114.8l1.7,26.5h46.2L276.4,75.3z"/>
	<path class="st3" d="M181.4,75.3H92.8L80,213.4l0.3-0.9h101.2v-45H128l2.1-46.2h51.3L181.4,75.3L181.4,75.3z M128,235.4H82
		l6.5,70.6l92.8,26.3v-47l-50.5-14.6L128,235.4z"/>
</g>
<g id="Calque_3">
	<g>
		<path class="st7" d="M362.8,205.7c0-24-30.1-46.8-76.2-60.9c10.6-47,5.9-84.5-14.9-96.4c-4.8-2.8-10.4-4.1-16.6-4.1v16.5
			c3.4,0,6.1,0.7,8.4,1.9c10.1,5.8,14.4,27.7,11,56c-0.8,7-2.1,14.3-3.8,21.7c-14.5-3.5-30.3-6.3-47-8.1c-10-13.7-20.3-26.1-30.8-37
			c24.1-22.4,46.7-34.7,62.1-34.7V44.2l0,0c-20.3,0-47,14.5-73.9,39.6c-26.9-25-53.5-39.3-73.9-39.3v16.5c15.3,0,38,12.2,62.1,34.5
			c-10.4,10.9-20.7,23.2-30.5,36.9c-16.7,1.8-32.5,4.5-47,8.1c-1.7-7.4-3-14.6-3.8-21.4c-3.5-28.2,0.8-50.2,10.8-56.1
			c2.2-1.3,5.1-1.9,8.5-1.9V44.5l0,0c-6.2,0-11.8,1.3-16.7,4.1c-20.8,12-25.4,49.3-14.7,96.2C29.9,159.1,0,181.8,0,205.7
			c0,24,30.1,46.8,76.2,60.9c-10.6,47-5.9,84.5,14.9,96.4c4.8,2.8,10.4,4.1,16.6,4.1c20.3,0,47-14.5,73.9-39.6
			c26.9,25,53.5,39.3,73.9,39.3c6.2,0,11.8-1.3,16.7-4.1c20.8-12,25.4-49.3,14.7-96.2C332.9,252.5,362.8,229.7,362.8,205.7z
			 M266.5,156.4c-2.7,9.5-6.1,19.4-10,29.2c-3-5.9-6.2-11.8-9.7-17.7c-3.4-5.9-7-11.7-10.6-17.3C246.7,152.1,256.8,154,266.5,156.4z
			 M232.6,235.2c-5.8,10-11.7,19.4-17.8,28.2c-11,1-22.2,1.5-33.4,1.5c-11.2,0-22.3-0.5-33.3-1.4c-6.1-8.8-12.1-18.2-17.9-28.1
			c-5.6-9.7-10.7-19.5-15.4-29.4c4.6-9.9,9.8-19.8,15.3-29.5c5.8-10,11.7-19.4,17.8-28.2c11-1,22.2-1.5,33.4-1.5
			c11.2,0,22.3,0.5,33.3,1.4c6.1,8.8,12.1,18.2,17.9,28.1c5.6,9.7,10.7,19.5,15.4,29.4C243.3,215.6,238.2,225.5,232.6,235.2z
			 M256.5,225.6c4,9.9,7.4,19.8,10.2,29.4c-9.7,2.4-19.9,4.4-30.5,5.9c3.6-5.7,7.2-11.5,10.6-17.5
			C250.3,237.5,253.5,231.5,256.5,225.6z M181.5,304.5c-6.9-7.1-13.8-15-20.6-23.7c6.7,0.3,13.5,0.5,20.3,0.5c7,0,13.8-0.1,20.6-0.5
			C195.2,289.4,188.4,297.4,181.5,304.5z M126.5,260.9c-10.5-1.6-20.6-3.5-30.3-5.8c2.7-9.5,6.1-19.4,10-29.2
			c3,5.9,6.2,11.8,9.7,17.7C119.4,249.5,122.9,255.3,126.5,260.9z M181.2,107c6.9,7.1,13.8,15,20.6,23.7c-6.7-0.3-13.5-0.5-20.3-0.5
			c-7,0-13.8,0.1-20.6,0.5C167.5,122,174.4,114.1,181.2,107z M126.5,150.6c-3.6,5.7-7.2,11.5-10.6,17.5c-3.4,5.9-6.6,11.8-9.6,17.7
			c-4-9.9-7.4-19.8-10.2-29.4C105.7,154.1,115.9,152.1,126.5,150.6z M59.5,243.2c-26.2-11.2-43.1-25.8-43.1-37.4
			s16.9-26.3,43.1-37.4c6.4-2.7,13.3-5.2,20.5-7.5c4.2,14.5,9.8,29.6,16.6,45c-6.8,15.4-12.3,30.4-16.4,44.8
			C72.9,248.4,66,245.9,59.5,243.2z M99.3,348.8c-10.1-5.8-14.4-27.7-11-56c0.8-7,2.1-14.3,3.8-21.7c14.5,3.5,30.3,6.3,47,8.1
			c10,13.7,20.3,26.1,30.8,37c-24.1,22.4-46.7,34.7-62.1,34.7C104.3,350.8,101.5,350.1,99.3,348.8z M274.7,292.5
			c3.5,28.2-0.8,50.2-10.8,56.1c-2.2,1.3-5.1,1.9-8.5,1.9c-15.3,0-38-12.2-62.1-34.5c10.4-10.9,20.7-23.2,30.5-36.9
			c16.7-1.8,32.5-4.5,47-8.1C272.6,278.4,273.9,285.6,274.7,292.5z M303.2,243.2c-6.4,2.7-13.3,5.2-20.5,7.5
			c-4.2-14.5-9.8-29.6-16.6-45c6.8-15.4,12.3-30.4,16.4-44.8c7.3,2.3,14.3,4.8,20.8,7.5c26.2,11.2,43.1,25.8,43.1,37.4
			C346.3,217.3,329.4,232.1,303.2,243.2z"/>
		<path class="st7" d="M107.3,44.5L107.3,44.5L107.3,44.5z"/>
		<circle class="st7" cx="181.3" cy="205.7" r="33.8"/>
		<path class="st7" d="M255,44.2L255,44.2L255,44.2z"/>
	</g>
</g>
</svg>
